<svg version="1.1" id="Layer_1" xmlns="http://www.w3.org/2000/svg" xmlns:xlink="http://www.w3.org/1999/xlink" x="0px" y="0px"
	 width="100%" viewBox="0 0 1079 458" enable-background="new 0 0 1079 458" xml:space="preserve">
<path fill="#EF1C22" opacity="1.000000" stroke="none" 
	d="
M1080.000000,161.000000 
	C1080.000000,260.319458 1080.000000,359.638916 1080.000000,458.979187 
	C720.397461,458.979187 360.794922,458.979187 1.096193,458.979187 
	C1.096193,306.418854 1.096193,153.837616 1.096193,1.128187 
	C360.666626,1.128187 720.333313,1.128187 1080.000000,1.128187 
	C1080.000000,39.087700 1080.000000,77.082596 1079.651611,115.628906 
	C1078.434814,117.302170 1076.922729,118.358871 1076.801514,119.556343 
	C1075.927246,128.198395 1074.969238,136.861115 1074.783936,145.533234 
	C1074.665283,151.089554 1075.317749,156.845856 1080.000000,161.000000 
M780.386353,105.283524 
	C757.612183,92.646545 733.412292,89.151413 707.969116,94.251785 
	C648.932983,106.086227 611.661499,165.544998 626.585205,223.950607 
	C642.861267,287.648468 712.082336,321.773834 772.052368,294.672211 
	C812.506592,276.390198 833.302124,243.847900 835.074585,199.458771 
	C835.851562,180.000198 830.659058,161.917419 821.771301,143.416992 
	C822.160339,142.954819 822.549316,142.492661 823.620728,141.917999 
	C833.069092,134.993423 836.467773,125.434784 834.493286,114.271385 
	C832.386902,102.361938 823.216736,93.523445 811.334106,91.651329 
	C800.102478,89.881805 790.637939,93.345787 783.034485,103.527328 
	C782.308960,104.272766 781.583435,105.018196 780.386353,105.283524 
M279.613373,137.093338 
	C279.560730,137.924744 279.462006,138.756165 279.461945,139.587570 
	C279.455383,226.241287 279.415192,312.895020 279.499359,399.548676 
	C279.512543,413.090057 290.686523,425.454712 302.763306,425.960419 
	C320.711365,426.712036 332.362610,417.631317 333.716827,401.533936 
	C334.162476,396.236633 333.939392,390.879272 333.944366,385.549347 
	C333.968323,359.886505 333.939423,334.223572 333.985565,308.560822 
	C334.003815,298.412018 339.556854,294.352112 349.275574,297.256561 
	C350.709290,297.685059 352.105316,298.238159 353.533875,298.685364 
	C368.391693,303.336487 383.591766,304.681122 398.972321,302.581390 
	C456.804443,294.686218 496.871429,242.465729 489.764008,184.471298 
	C481.743347,119.024788 414.278625,76.718880 351.628754,97.935585 
	C344.558472,100.329964 337.695068,103.335030 330.251709,105.659706 
	C328.723480,104.174461 327.097321,102.776497 325.683136,101.189613 
	C317.266632,91.745354 304.684265,88.573364 293.471375,93.135590 
	C281.976593,97.812515 275.104309,108.445786 276.126678,121.258423 
	C276.528900,126.298805 278.484131,131.215271 279.613373,137.093338 
M518.286133,119.617920 
	C509.125854,124.281548 503.202942,131.457932 503.160706,141.962662 
	C502.975769,187.949371 502.888306,233.939148 503.343018,279.922089 
	C503.394318,285.111847 505.821594,291.465057 509.346527,295.206757 
	C519.158813,305.622467 531.902954,307.381683 545.252869,303.175323 
	C557.184570,299.415741 563.885559,288.751862 563.920166,274.350739 
	C563.989502,245.525421 563.942871,216.699799 563.943604,187.874298 
	C563.943909,177.837463 565.963135,176.059525 576.202515,177.119049 
	C577.027649,177.204422 577.849182,177.595230 578.655579,177.549210 
	C586.255737,177.115265 594.193848,177.863297 601.382935,175.893097 
	C619.562195,170.911041 625.040649,149.692398 618.630249,133.708237 
	C617.021057,129.695740 614.310852,125.838623 611.252930,122.757309 
	C606.073364,117.538132 599.198975,116.061310 591.961060,116.076790 
	C573.799377,116.115631 555.631531,115.823463 537.479187,116.236862 
	C531.289612,116.377831 525.138916,118.227203 518.286133,119.617920 
z"/>
<path fill="#D54010" opacity="1.000000" stroke="none" 
	d="
M1080.000000,160.600006 
	C1075.317749,156.845856 1074.665283,151.089554 1074.783936,145.533234 
	C1074.969238,136.861115 1075.927246,128.198395 1076.801514,119.556343 
	C1076.922729,118.358871 1078.434814,117.302170 1079.651611,116.090157 
	C1080.000000,117.066673 1080.000000,118.133339 1079.687378,119.806908 
	C1075.474854,132.679413 1075.402466,144.879608 1080.000000,157.000000 
	C1080.000000,158.066666 1080.000000,159.133347 1080.000000,160.600006 
z"/>
<path fill="#FCD248" opacity="1.000000" stroke="none" 
	d="
M1080.000000,156.531342 
	C1075.402466,144.879608 1075.474854,132.679413 1079.687378,120.206902 
	C1080.000000,132.020889 1080.000000,144.041794 1080.000000,156.531342 
z"/>
<path fill="#FFFCFC" opacity="1.000000" stroke="none" 
	d="
M330.735718,106.056915 
	C337.695068,103.335030 344.558472,100.329964 351.628754,97.935585 
	C414.278625,76.718880 481.743347,119.024788 489.764008,184.471298 
	C496.871429,242.465729 456.804443,294.686218 398.972321,302.581390 
	C383.591766,304.681122 368.391693,303.336487 353.533875,298.685364 
	C352.105316,298.238159 350.709290,297.685059 349.275574,297.256561 
	C339.556854,294.352112 334.003815,298.412018 333.985565,308.560822 
	C333.939423,334.223572 333.968323,359.886505 333.944366,385.549347 
	C333.939392,390.879272 334.162476,396.236633 333.716827,401.533936 
	C332.362610,417.631317 320.711365,426.712036 302.763306,425.960419 
	C290.686523,425.454712 279.512543,413.090057 279.499359,399.548676 
	C279.415192,312.895020 279.455383,226.241287 279.461945,139.587570 
	C279.462006,138.756165 279.560730,137.924744 279.946533,136.747787 
	C281.776184,137.685455 283.285370,138.954208 284.767029,140.254288 
	C293.364227,147.798035 303.101929,150.028366 313.882294,145.999161 
	C324.373718,142.077927 331.109070,134.654724 331.922211,123.235535 
	C332.325897,117.566238 331.180389,111.786629 330.735718,106.056915 
M425.483276,228.955414 
	C434.437408,217.194656 437.827545,203.951172 435.203339,189.455612 
	C431.485413,168.918350 419.318878,154.974274 399.537720,149.113724 
	C378.024689,142.740067 358.919739,148.939865 344.976532,166.226883 
	C332.227112,182.033844 330.041199,200.673828 338.717682,219.264175 
	C355.432587,255.077728 402.161987,258.827423 425.483276,228.955414 
z"/>
<path fill="#F6E342" opacity="1.000000" stroke="none" 
	d="
M330.493713,105.858307 
	C331.180389,111.786629 332.325897,117.566238 331.922211,123.235535 
	C331.109070,134.654724 324.373718,142.077927 313.882294,145.999161 
	C303.101929,150.028366 293.364227,147.798035 284.767029,140.254288 
	C283.285370,138.954208 281.776184,137.685455 280.005920,136.295197 
	C278.484131,131.215271 276.528900,126.298805 276.126678,121.258423 
	C275.104309,108.445786 281.976593,97.812515 293.471375,93.135590 
	C304.684265,88.573364 317.266632,91.745354 325.683136,101.189613 
	C327.097321,102.776497 328.723480,104.174461 330.493713,105.858307 
z"/>
<path fill="#F7EB36" opacity="1.000000" stroke="none" 
	d="
M783.869995,102.917740 
	C790.637939,93.345787 800.102478,89.881805 811.334106,91.651329 
	C823.216736,93.523445 832.386902,102.361938 834.493286,114.271385 
	C836.467773,125.434784 833.069092,134.993423 822.921997,141.978302 
	C820.772400,142.928726 819.321533,143.818863 817.663391,144.792191 
	C817.456116,144.875381 817.031982,145.015244 816.584412,144.992813 
	C814.637573,145.007202 813.104675,144.853745 811.644653,145.112091 
	C802.913391,146.657013 795.156128,145.097061 788.766479,138.486893 
	C787.907471,137.598251 786.447327,137.290680 785.190918,136.355804 
	C784.834961,135.227112 784.651306,134.402283 784.257385,133.694366 
	C779.066162,124.363800 778.732117,115.030655 784.019592,105.591873 
	C784.387756,104.934669 783.938904,103.819778 783.869995,102.917740 
z"/>
<path fill="#F6B8BA" opacity="1.000000" stroke="none" 
	d="
M821.019897,145.066177 
	C830.659058,161.917419 835.851562,180.000198 835.074585,199.458771 
	C833.302124,243.847900 812.506592,276.390198 772.052368,294.672211 
	C712.082336,321.773834 642.861267,287.648468 626.585205,223.950607 
	C611.661499,165.544998 648.932983,106.086227 707.969116,94.251785 
	C733.412292,89.151413 757.612183,92.646545 780.543518,105.569305 
	C780.447327,106.000412 780.180237,106.111710 779.634399,106.108444 
	C779.013672,105.951561 778.657898,105.875206 778.018921,105.583992 
	C768.038086,101.957062 758.585571,96.941032 748.599731,95.415573 
	C709.126587,89.385582 674.934448,99.916893 648.956848,131.421280 
	C625.689087,159.639297 618.526062,192.146622 629.084412,226.992569 
	C641.942993,269.430115 671.319153,294.691681 715.422180,301.179321 
	C750.882751,306.395569 781.110840,294.710571 805.932678,269.255585 
	C818.865295,255.993103 826.843750,239.857864 831.029480,221.763138 
	C837.031433,195.816742 833.851929,171.244095 820.751831,147.671707 
	C820.669983,146.909561 820.614929,146.472885 820.604004,145.907623 
	C820.769409,145.539520 820.893372,145.301910 821.019897,145.066177 
z"/>
<path fill="#CC4044" opacity="1.000000" stroke="none" 
	d="
M518.628296,119.456947 
	C525.138916,118.227203 531.289612,116.377831 537.479187,116.236862 
	C555.631531,115.823463 573.799377,116.115631 591.961060,116.076790 
	C599.198975,116.061310 606.073364,117.538132 611.252930,122.757309 
	C614.310852,125.838623 617.021057,129.695740 618.630249,133.708237 
	C625.040649,149.692398 619.562195,170.911041 601.382935,175.893097 
	C594.193848,177.863297 586.255737,177.115265 578.655579,177.549210 
	C577.849182,177.595230 577.027649,177.204422 576.202515,177.119049 
	C565.963135,176.059525 563.943909,177.837463 563.943604,187.874298 
	C563.942871,216.699799 563.989502,245.525421 563.920166,274.350739 
	C563.885559,288.751862 557.184570,299.415741 545.252869,303.175323 
	C531.902954,307.381683 519.158813,305.622467 509.346527,295.206757 
	C505.821594,291.465057 503.394318,285.111847 503.343018,279.922089 
	C502.888306,233.939148 502.975769,187.949371 503.160706,141.962662 
	C503.202942,131.457932 509.125854,124.281548 518.628296,119.456947 
M505.156433,268.461121 
	C505.317841,275.551605 504.197144,282.807587 508.212219,289.360168 
	C514.897339,300.270447 528.259277,305.386780 541.263367,301.932892 
	C553.909363,298.574066 561.125427,289.373901 561.200684,275.584473 
	C561.370728,244.441223 561.283264,213.296570 561.300293,182.152481 
	C561.301575,179.871964 561.300476,177.591461 561.300476,174.852493 
	C571.569519,174.852493 581.198730,174.866470 590.827881,174.849304 
	C605.951050,174.822327 614.815002,167.970459 618.220398,153.205048 
	C621.729736,137.988922 612.578552,119.112778 595.501831,118.875458 
	C573.528015,118.570084 551.532837,118.479805 529.571106,119.124008 
	C516.531128,119.506500 504.834869,130.778168 505.002106,146.060593 
	C505.444946,186.526703 505.154877,227.000809 505.156433,268.461121 
z"/>
<path fill="#F3EA71" opacity="1.000000" stroke="none" 
	d="
M779.899414,106.188972 
	C780.180237,106.111710 780.447327,106.000412 780.779297,105.809357 
	C781.583435,105.018196 782.308960,104.272766 783.452271,103.222534 
	C783.938904,103.819778 784.387756,104.934669 784.019592,105.591873 
	C778.732117,115.030655 779.066162,124.363800 784.257385,133.694366 
	C784.651306,134.402283 784.834961,135.227112 785.091919,136.454651 
	C785.067566,136.911697 784.867371,137.100372 784.613770,136.926147 
	C783.383911,136.028214 782.407654,135.304489 781.383057,134.314362 
	C781.218323,133.706467 781.101990,133.365005 780.950012,132.641144 
	C778.304626,125.332275 776.989075,118.359993 779.583374,111.063873 
	C780.108093,109.588020 779.815308,107.821487 779.899414,106.188972 
z"/>
<path fill="#F3EA71" opacity="1.000000" stroke="none" 
	d="
M821.395630,144.241577 
	C820.893372,145.301910 820.769409,145.539520 820.391846,145.706482 
	C819.380615,145.325638 818.625671,145.017334 817.870667,144.709015 
	C819.321533,143.818863 820.772400,142.928726 822.580811,142.034546 
	C822.549316,142.492661 822.160339,142.954819 821.395630,144.241577 
z"/>
<path fill="#EB1F25" opacity="1.000000" stroke="none" 
	d="
M425.270599,229.242462 
	C402.161987,258.827423 355.432587,255.077728 338.717682,219.264175 
	C330.041199,200.673828 332.227112,182.033844 344.976532,166.226883 
	C358.919739,148.939865 378.024689,142.740067 399.537720,149.113724 
	C419.318878,154.974274 431.485413,168.918350 435.203339,189.455612 
	C437.827545,203.951172 434.437408,217.194656 425.270599,229.242462 
z"/>
<path fill="#FEFCC7" opacity="1.000000" stroke="none" 
	d="
M817.663391,144.792206 
	C818.625671,145.017334 819.380615,145.325638 820.347778,145.835083 
	C820.614929,146.472885 820.669983,146.909561 820.352966,147.671936 
	C816.732605,148.552109 813.483643,149.102554 810.236145,149.661758 
	C800.523193,151.334335 788.330627,146.155930 785.374939,139.029175 
	C787.159119,140.190277 788.644470,141.233429 790.049377,142.375610 
	C796.615417,147.713699 809.891357,150.285385 817.031982,145.015244 
	C817.031982,145.015244 817.456116,144.875381 817.663391,144.792206 
z"/>
<path fill="#F3EA71" opacity="1.000000" stroke="none" 
	d="
M816.584412,144.992813 
	C809.891357,150.285385 796.615417,147.713699 790.049377,142.375610 
	C788.644470,141.233429 787.159119,140.190277 785.371887,139.043945 
	C785.032959,138.986374 785.043823,138.965225 785.044739,138.652039 
	C784.986267,137.926025 784.926819,137.513199 784.867371,137.100372 
	C784.867371,137.100372 785.067566,136.911697 785.166565,136.812851 
	C786.447327,137.290680 787.907471,137.598251 788.766479,138.486893 
	C795.156128,145.097061 802.913391,146.657013 811.644653,145.112091 
	C813.104675,144.853745 814.637573,145.007202 816.584412,144.992813 
z"/>
<path fill="#FEFCFC" opacity="1.000000" stroke="none" 
	d="
M785.036011,138.971603 
	C788.330627,146.155930 800.523193,151.334335 810.236145,149.661758 
	C813.483643,149.102554 816.732605,148.552109 820.379761,147.997406 
	C833.851929,171.244095 837.031433,195.816742 831.029480,221.763138 
	C826.843750,239.857864 818.865295,255.993103 805.932678,269.255585 
	C781.110840,294.710571 750.882751,306.395569 715.422180,301.179321 
	C671.319153,294.691681 641.942993,269.430115 629.084412,226.992569 
	C618.526062,192.146622 625.689087,159.639297 648.956848,131.421280 
	C674.934448,99.916893 709.126587,89.385582 748.599731,95.415573 
	C758.585571,96.941032 768.038086,101.957062 777.941650,106.015862 
	C777.792236,113.554123 777.138062,120.451561 777.274231,127.333374 
	C777.312195,129.253815 779.684326,131.128067 780.985718,133.023529 
	C781.101990,133.365005 781.218323,133.706467 781.326172,134.680145 
	C782.559753,136.529953 783.801819,137.747589 785.043823,138.965225 
	C785.043823,138.965225 785.032959,138.986374 785.036011,138.971603 
M678.315369,200.122894 
	C678.599060,202.770508 678.685425,205.456940 679.197632,208.059586 
	C683.403442,229.433380 701.631531,246.072357 723.656555,248.742203 
	C744.984314,251.327560 766.053772,239.543442 775.500122,219.746201 
	C784.754822,200.350601 780.562561,175.872665 764.818909,161.325867 
	C748.802551,146.527206 729.918030,142.444077 709.813965,150.939682 
	C688.985535,159.741440 678.545166,176.446365 678.315369,200.122894 
z"/>
<path fill="#FEFCC7" opacity="1.000000" stroke="none" 
	d="
M780.950073,132.641144 
	C779.684326,131.128067 777.312195,129.253815 777.274231,127.333374 
	C777.138062,120.451561 777.792236,113.554123 778.224854,106.230728 
	C778.657898,105.875206 779.013672,105.951561 779.634399,106.108444 
	C779.815308,107.821487 780.108093,109.588020 779.583374,111.063873 
	C776.989075,118.359993 778.304626,125.332275 780.950073,132.641144 
z"/>
<path fill="#FEFCFD" opacity="1.000000" stroke="none" 
	d="
M505.156433,267.966431 
	C505.154877,227.000809 505.444946,186.526703 505.002106,146.060593 
	C504.834869,130.778168 516.531128,119.506500 529.571106,119.124008 
	C551.532837,118.479805 573.528015,118.570084 595.501831,118.875458 
	C612.578552,119.112778 621.729736,137.988922 618.220398,153.205048 
	C614.815002,167.970459 605.951050,174.822327 590.827881,174.849304 
	C581.198730,174.866470 571.569519,174.852493 561.300476,174.852493 
	C561.300476,177.591461 561.301575,179.871964 561.300293,182.152481 
	C561.283264,213.296570 561.370728,244.441223 561.200684,275.584473 
	C561.125427,289.373901 553.909363,298.574066 541.263367,301.932892 
	C528.259277,305.386780 514.897339,300.270447 508.212219,289.360168 
	C504.197144,282.807587 505.317841,275.551605 505.156433,267.966431 
z"/>
<path fill="#FEFCC7" opacity="1.000000" stroke="none" 
	d="
M785.044739,138.652039 
	C783.801819,137.747589 782.559753,136.529953 781.374573,134.946548 
	C782.407654,135.304489 783.383911,136.028214 784.613770,136.926147 
	C784.926819,137.513199 784.986267,137.926025 785.044739,138.652039 
z"/>
<path fill="#EB1F25" opacity="1.000000" stroke="none" 
	d="
M678.293091,199.679474 
	C678.545166,176.446365 688.985535,159.741440 709.813965,150.939682 
	C729.918030,142.444077 748.802551,146.527206 764.818909,161.325867 
	C780.562561,175.872665 784.754822,200.350601 775.500122,219.746201 
	C766.053772,239.543442 744.984314,251.327560 723.656555,248.742203 
	C701.631531,246.072357 683.403442,229.433380 679.197632,208.059586 
	C678.685425,205.456940 678.599060,202.770508 678.293091,199.679474 
z"/>
</svg>