<svg xmlns="http://www.w3.org/2000/svg" xmlns:xlink="http://www.w3.org/1999/xlink" width="271.196" height="380.199" viewBox="0 0 271.196 380.199">
  <defs>
    <filter id="Path_2012" x="0" y="22.452" width="271.196" height="357.747" filterUnits="userSpaceOnUse">
      <feOffset dy="8" input="SourceAlpha"/>
      <feGaussianBlur stdDeviation="8" result="blur"/>
      <feFlood flood-opacity="0.161"/>
      <feComposite operator="in" in2="blur"/>
      <feComposite in="SourceGraphic"/>
    </filter>
    <clipPath id="clip-path">
      <path id="Union_2" data-name="Union 2" d="M173.933,184.829v-6.373h6.442v6.373Zm-6.442,0v-6.373h6.442v6.373Zm-51.535,0v-6.373H122.4v6.373Zm-12.884,0v-6.373h6.442v6.373Zm-6.442,0v-6.373h6.442v6.373Zm-6.442,0v-6.373h6.442v6.373Zm-6.442,0v-6.373h6.442v6.373Zm-12.884,0v-6.373H77.3v6.373ZM0,184.829V140.215H45.093v44.614Zm6.442-6.373H38.651V146.588H6.442Zm161.049,0v-6.373h6.442v6.373Zm-6.442,0v-6.373h6.442v6.373Zm-12.884,0v-6.373h6.442v6.373Zm-19.326,0v-6.373h6.442v6.373Zm-6.442,0v-6.373h6.442v6.373Zm-25.768,0v-6.373h6.442v6.373Zm-6.442,0v-6.373h6.442v6.373Zm-12.884,0v-6.373h6.442v6.373Zm-19.326,0v-6.373H64.42v6.373Zm-6.442,0v-6.373h6.442v6.373Zm122.4-6.373v-6.374h6.442v6.374Zm-12.884,0v-6.374h6.442v6.374Zm-19.326,0v-6.374h6.442v6.374Zm-6.442,0v-6.374h6.442v6.374Zm-6.442,0v-6.374h6.442v6.374Zm-6.442,0v-6.374h6.442v6.374Zm-6.442,0v-6.374H122.4v6.374Zm-19.326,0v-6.374h6.442v6.374Zm-12.884,0v-6.374h6.442v6.374Zm-70.861,0V152.962H32.209v19.121Zm167.491-6.374v-6.373h6.442v6.373Zm-19.326,0v-6.373h6.442v6.373Zm-12.884,0v-6.373h6.442v6.373Zm-12.884,0v-6.373h6.442v6.373Zm-12.884,0v-6.373h6.442v6.373Zm-6.442,0v-6.373H122.4v6.373Zm-6.442,0v-6.373h6.442v6.373Zm-6.442,0v-6.373h6.442v6.373Zm-6.442,0v-6.373h6.442v6.373Zm-6.442,0v-6.373h6.442v6.373Zm-25.768,0v-6.373h6.442v6.373Zm-6.442,0v-6.373H64.42v6.373Zm-6.442,0v-6.373h6.442v6.373Zm128.84-6.373v-6.373h6.442v6.373Zm-6.442,0v-6.373h6.442v6.373Zm-6.442,0v-6.373h6.442v6.373Zm-12.884,0v-6.373h6.442v6.373Zm-6.442,0v-6.373h6.442v6.373Zm-6.442,0v-6.373h6.442v6.373Zm-6.442,0v-6.373h6.442v6.373Zm-6.442,0v-6.373h6.442v6.373Zm-6.442,0v-6.373h6.442v6.373Zm-12.884,0v-6.373h6.442v6.373Zm-12.884,0v-6.373h6.442v6.373Zm-12.884,0v-6.373h6.442v6.373Zm-12.884,0v-6.373H77.3v6.373Zm-12.884,0v-6.373H64.42v6.373Zm-6.442,0v-6.373h6.442v6.373Zm128.84-6.373v-6.373h6.442v6.373Zm-12.884,0v-6.373h6.442v6.373Zm-6.442,0v-6.373h6.442v6.373Zm-6.442,0v-6.373h6.442v6.373Zm-25.768,0v-6.373h6.442v6.373Zm-6.442,0v-6.373h6.442v6.373Zm-6.442,0v-6.373H122.4v6.373Zm-6.442,0v-6.373h6.442v6.373Zm-19.326,0v-6.373h6.442v6.373Zm-19.326,0v-6.373H77.3v6.373Zm109.513-6.373v-6.373h6.442v6.373Zm-6.442,0v-6.373h6.442v6.373Zm-19.326,0v-6.373h6.442v6.373Zm-12.884,0v-6.373h6.442v6.373Zm-12.884,0v-6.373h6.442v6.373Zm-6.442,0v-6.373h6.442v6.373Zm-32.21,0v-6.373h6.442v6.373Zm-6.442,0v-6.373h6.442v6.373Zm-6.442,0v-6.373h6.442v6.373Zm-12.884,0v-6.373h6.442v6.373Zm-12.884,0v-6.373h6.442v6.373Zm122.4-6.373v-6.373h6.442v6.373Zm-6.442,0v-6.373h6.442v6.373Zm-12.884,0v-6.373h6.442v6.373Zm-25.768,0v-6.373h6.442v6.373Zm-6.442,0v-6.373h6.442v6.373Zm-12.884,0v-6.373h6.442v6.373Zm-6.442,0v-6.373h6.442v6.373Zm-12.884,0v-6.373h6.442v6.373Zm-12.884,0v-6.373h6.442v6.373Zm-12.884,0v-6.373h6.442v6.373Zm-6.442,0v-6.373H64.42v6.373Zm-6.442,0v-6.373h6.442v6.373Zm128.84-6.373v-6.373h6.442v6.373Zm-12.884,0v-6.373h6.442v6.373Zm-12.884,0v-6.373h6.442v6.373Zm-6.442,0v-6.373h6.442v6.373Zm-6.442,0v-6.373h6.442v6.373Zm-6.442,0v-6.373h6.442v6.373Zm-6.442,0v-6.373h6.442v6.373Zm-6.442,0v-6.373h6.442v6.373Zm-19.326,0v-6.373h6.442v6.373Zm-12.884,0v-6.373h6.442v6.373Zm-12.884,0v-6.373h6.442v6.373Zm-6.442,0v-6.373H77.3v6.373Zm-6.442,0v-6.373h6.442v6.373Zm-25.768,0v-6.373h6.442v6.373Zm-6.442,0v-6.373h6.442v6.373Zm-6.442,0v-6.373h6.442v6.373Zm-6.442,0v-6.373h6.442v6.373ZM0,133.842v-6.373H6.442v6.373Zm173.933-6.373v-6.373h6.442v6.373Zm-19.326,0v-6.373h6.442v6.373Zm-6.442,0v-6.373h6.442v6.373Zm-6.442,0v-6.373h6.442v6.373Zm-12.884,0v-6.373h6.442v6.373Zm-12.884,0v-6.373H122.4v6.373Zm-12.884,0v-6.373h6.442v6.373Zm-12.884,0v-6.373h6.442v6.373Zm-19.326,0v-6.373H77.3v6.373Zm-6.442,0v-6.373h6.442v6.373Zm-12.884,0v-6.373h6.442v6.373Zm-6.442,0v-6.373h6.442v6.373Zm-19.326,0v-6.373h6.442v6.373Zm-12.884,0v-6.373h6.442v6.373Zm-6.442,0v-6.373h6.442v6.373Zm-6.442,0v-6.373H6.442v6.373Zm173.933-6.373v-6.373h6.442v6.373Zm-12.884,0v-6.373h6.442v6.373Zm-12.884,0v-6.373h6.442v6.373Zm-12.884,0v-6.373h6.442v6.373Zm-6.442,0v-6.373h6.442v6.373Zm-6.442,0v-6.373h6.442v6.373Zm-6.442,0v-6.373H122.4v6.373Zm-12.884,0v-6.373h6.442v6.373Zm-12.884,0v-6.373h6.442v6.373Zm-25.768,0v-6.373h6.442v6.373Zm-6.442,0v-6.373H64.42v6.373Zm-12.884,0v-6.373h6.442v6.373Zm-6.442,0v-6.373h6.442v6.373Zm128.839-6.373v-6.374h6.442v6.374Zm-6.442,0v-6.374h6.442v6.374Zm-6.442,0v-6.374h6.442v6.374Zm-19.326,0v-6.374h6.442v6.374Zm-6.442,0v-6.374h6.442v6.374Zm-19.326,0v-6.374h6.442v6.374Zm-6.442,0v-6.374h6.442v6.374Zm-32.21,0v-6.374H77.3v6.374Zm-6.442,0v-6.374h6.442v6.374Zm-19.326,0v-6.374h6.442v6.374Zm-25.768,0v-6.374h6.442v6.374Zm154.607-6.374v-6.373h6.442v6.373Zm-25.768,0v-6.373h6.442v6.373Zm-6.442,0v-6.373h6.442v6.373Zm-12.884,0v-6.373h6.442v6.373Zm-6.442,0v-6.373h6.442v6.373Zm-6.442,0v-6.373H122.4v6.373Zm-19.326,0v-6.373h6.442v6.373Zm-6.442,0v-6.373h6.442v6.373Zm-6.442,0v-6.373h6.442v6.373Zm-6.442,0v-6.373h6.442v6.373Zm-6.442,0v-6.373H77.3v6.373Zm-6.442,0v-6.373h6.442v6.373Zm-6.442,0v-6.373H64.42v6.373Zm-12.884,0v-6.373h6.442v6.373Zm-6.442,0v-6.373h6.442v6.373Zm-6.442,0v-6.373h6.442v6.373Zm-6.442,0v-6.373h6.442v6.373Zm-12.884,0v-6.373h6.442v6.373Zm-6.442,0v-6.373h6.442v6.373Zm173.933-6.373V95.6h6.442v6.373Zm-12.884,0V95.6h6.442v6.373Zm-12.884,0V95.6h6.442v6.373Zm-6.442,0V95.6h6.442v6.373Zm-6.442,0V95.6h6.442v6.373Zm-6.442,0V95.6h6.442v6.373Zm-12.884,0V95.6h6.442v6.373Zm-32.21,0V95.6h6.442v6.373Zm-12.884,0V95.6h6.442v6.373Zm-12.884,0V95.6h6.442v6.373Zm-6.442,0V95.6H64.42v6.373Zm-6.442,0V95.6h6.442v6.373Zm-6.442,0V95.6h6.442v6.373Zm-19.326,0V95.6h6.442v6.373Zm-12.884,0V95.6h6.442v6.373Zm-6.442,0V95.6h6.442v6.373ZM161.049,95.6V89.228h6.442V95.6Zm-12.884,0V89.228h6.442V95.6Zm-19.326,0V89.228h6.442V95.6Zm-12.884,0V89.228H122.4V95.6Zm-6.442,0V89.228h6.442V95.6Zm-6.442,0V89.228h6.442V95.6Zm-12.884,0V89.228h6.442V95.6Zm-6.442,0V89.228h6.442V95.6Zm-19.326,0V89.228h6.442V95.6Zm-12.884,0V89.228h6.442V95.6Zm-12.884,0V89.228h6.442V95.6Zm-6.442,0V89.228h6.442V95.6Zm-6.442,0V89.228h6.442V95.6Zm-12.884,0V89.228h6.442V95.6Zm-6.442,0V89.228h6.442V95.6ZM167.49,89.228V82.854h6.442v6.373Zm-6.442,0V82.854h6.442v6.373Zm-6.442,0V82.854h6.442v6.373Zm-6.442,0V82.854h6.442v6.373Zm-19.326,0V82.854h6.442v6.373Zm-6.442,0V82.854h6.442v6.373Zm-12.884,0V82.854h6.442v6.373Zm-6.442,0V82.854h6.442v6.373Zm-6.442,0V82.854h6.442v6.373Zm-12.884,0V82.854h6.442v6.373Zm-6.442,0V82.854h6.442v6.373Zm-12.884,0V82.854h6.442v6.373Zm-12.884,0V82.854h6.442v6.373Zm-6.442,0V82.854h6.442v6.373Zm-12.884,0V82.854h6.442v6.373Zm-19.326,0V82.854h6.442v6.373Zm-6.442,0V82.854h6.442v6.373ZM0,89.228V82.854H6.442v6.373Zm180.375-6.373V76.481h6.442v6.373Zm-6.442,0V76.481h6.442v6.373Zm-12.884,0V76.481h6.442v6.373Zm-6.442,0V76.481h6.442v6.373Zm-12.884,0V76.481h6.442v6.373Zm-12.884,0V76.481h6.442v6.373Zm-6.442,0V76.481h6.442v6.373Zm-6.442,0V76.481H122.4v6.373Zm-6.442,0V76.481h6.442v6.373Zm-6.442,0V76.481h6.442v6.373Zm-6.442,0V76.481h6.442v6.373Zm-19.326,0V76.481h6.442v6.373Zm-12.884,0V76.481h6.442v6.373Zm-19.326,0V76.481h6.442v6.373Zm-6.442,0V76.481h6.442v6.373Zm-12.884,0V76.481h6.442v6.373ZM0,82.854V76.481H6.442v6.373Zm180.375-6.373V70.108h6.442v6.373Zm-19.326,0V70.108h6.442v6.373Zm-6.442,0V70.108h6.442v6.373Zm-6.442,0V70.108h6.442v6.373Zm-6.442,0V70.108h6.442v6.373Zm-12.884,0V70.108h6.442v6.373Zm-19.326,0V70.108h6.442v6.373Zm-6.442,0V70.108h6.442v6.373Zm-19.326,0V70.108h6.442v6.373Zm-19.326,0V70.108h6.442v6.373Zm-6.442,0V70.108H64.42v6.373Zm-32.21,0V70.108h6.442v6.373Zm154.607-6.373V63.734h6.442v6.373Zm-6.442,0V63.734h6.442v6.373Zm-6.442,0V63.734h6.442v6.373Zm-6.442,0V63.734h6.442v6.373Zm-6.442,0V63.734h6.442v6.373Zm-6.442,0V63.734h6.442v6.373Zm-12.884,0V63.734h6.442v6.373Zm-19.326,0V63.734H122.4v6.373Zm-6.442,0V63.734h6.442v6.373Zm-12.884,0V63.734h6.442v6.373Zm-6.442,0V63.734h6.442v6.373Zm-12.884,0V63.734h6.442v6.373Zm-6.442,0V63.734H77.3v6.373Zm-6.442,0V63.734h6.442v6.373Zm-6.442,0V63.734H64.42v6.373Zm-12.884,0V63.734h6.442v6.373Zm-6.442,0V63.734h6.442v6.373Zm-6.442,0V63.734h6.442v6.373Zm-6.442,0V63.734h6.442v6.373Zm-6.442,0V63.734h6.442v6.373Zm-6.442,0V63.734h6.442v6.373Zm-6.442,0V63.734h6.442v6.373ZM0,70.108V63.734H6.442v6.373Zm173.933-6.373V57.361h6.442v6.373Zm-6.442,0V57.361h6.442v6.373Zm-19.326,0V57.361h6.442v6.373Zm-12.884,0V57.361h6.442v6.373Zm-6.442,0V57.361h6.442v6.373Zm-12.884,0V57.361H122.4v6.373Zm-6.442,0V57.361h6.442v6.373Zm-6.442,0V57.361h6.442v6.373Zm-25.768,0V57.361h6.442v6.373Zm-25.768,0V57.361h6.442v6.373Zm-6.442,0V57.361h6.442v6.373Zm-12.884,0V57.361h6.442v6.373Zm-12.884,0V57.361h6.442v6.373Zm-12.884,0V57.361h6.442v6.373Zm167.491-6.373V50.987h6.442v6.374Zm-12.884,0V50.987h6.442v6.374Zm-6.442,0V50.987h6.442v6.374Zm-6.442,0V50.987h6.442v6.374Zm-12.884,0V50.987h6.442v6.374Zm-6.442,0V50.987h6.442v6.374Zm-6.442,0V50.987h6.442v6.374Zm-6.442,0V50.987H122.4v6.374Zm-12.884,0V50.987h6.442v6.374Zm-6.442,0V50.987h6.442v6.374Zm-19.326,0V50.987h6.442v6.374Zm-6.442,0V50.987H77.3v6.374Zm-6.442,0V50.987h6.442v6.374Zm-6.442,0V50.987H64.42v6.374Zm-6.442,0V50.987h6.442v6.374Zm-6.442,0V50.987h6.442v6.374Zm-6.442,0V50.987h6.442v6.374Zm-12.884,0V50.987h6.442v6.374Zm-6.442,0V50.987h6.442v6.374Zm-12.884,0V50.987h6.442v6.374ZM122.4,50.987V44.614h6.442v6.373Zm-19.326,0V44.614h6.442v6.373Zm-19.326,0V44.614h6.442v6.373Zm-6.442,0V44.614h6.442v6.373Zm-6.442,0V44.614H77.3v6.373Zm-12.884,0V44.614H64.42v6.373Zm83.745-6.373V0h45.094V44.614Zm6.442-6.373h32.21V6.373h-32.21Zm-19.326,6.373V38.24h6.442v6.373Zm-12.884,0V38.24H122.4v6.373Zm-12.884,0V38.24h6.442v6.373Zm-12.884,0V38.24h6.442v6.373Zm-12.884,0V38.24h6.442v6.373Zm-12.884,0V38.24h6.442v6.373Zm-12.884,0V38.24h6.442v6.373ZM0,44.614V0H45.093V44.614ZM6.442,38.24H38.651V6.373H6.442Zm122.4,0V31.867h6.442V38.24Zm-19.326,0V31.867h6.442V38.24Zm-12.884,0V31.867h6.442V38.24Zm-12.884,0V31.867h6.442V38.24Zm-12.884,0V31.867H77.3V38.24Zm-19.326,0V31.867h6.442V38.24Zm103.072-6.373V12.747h19.326v19.12Zm-32.209,0V25.493h6.442v6.373Zm-6.442,0V25.493H122.4v6.373Zm-19.326,0V25.493h6.442v6.373Zm-12.884,0V25.493h6.442v6.373Zm-6.442,0V25.493h6.442v6.373Zm-6.442,0V25.493H77.3v6.373Zm-6.442,0V25.493h6.442v6.373Zm-12.884,0V25.493h6.442v6.373Zm-38.651,0V12.747H32.209v19.12Zm115.955-6.373V19.12h6.442v6.373Zm-6.442,0V19.12h6.442v6.373Zm-12.884,0V19.12h6.442v6.373Zm-6.442,0V19.12h6.442v6.373Zm-12.884,0V19.12h6.442v6.373Zm-32.209,0V19.12H64.42v6.373Zm-6.442,0V19.12h6.442v6.373ZM122.4,19.12V12.747h6.442V19.12Zm-12.884,0V12.747h6.442V19.12Zm-6.442,0V12.747h6.442V19.12Zm-19.326,0V12.747h6.442V19.12Zm-12.884,0V12.747H77.3V19.12Zm57.978-6.373V6.373h6.442v6.373Zm-6.442,0V6.373h6.442v6.373Zm-6.442,0V6.373H122.4v6.373Zm-12.884,0V6.373h6.442v6.373Zm-6.442,0V6.373h6.442v6.373Zm-19.326,0V6.373h6.442v6.373Zm-12.884,0V6.373h6.442v6.373Zm-12.884,0V6.373h6.442v6.373Zm77.3-6.373V0h6.442V6.373Zm-6.442,0V0h6.442V6.373Zm-6.442,0V0H122.4V6.373Zm-6.442,0V0h6.442V6.373Zm-19.326,0V0h6.442V6.373Zm-6.442,0V0h6.442V6.373Zm-6.442,0V0h6.442V6.373Zm-12.884,0V0h6.442V6.373Z" fill="#1d1d1f"/>
    </clipPath>
  </defs>
  <g id="QR_Code_If_Found_Scan_Return" data-name="QR Code If Found Scan &amp; Return" transform="translate(24)">
    <g id="Scane_QR_Code" data-name="Scane QR Code">
      <path id="Rectangle_1324" data-name="Rectangle 1324" d="M8,0H214.756a8,8,0,0,1,8,8V47.733a0,0,0,0,1,0,0H0a0,0,0,0,1,0,0V8A8,8,0,0,1,8,0Z" fill="#fc4041"/>
      <text id="If_Found_Scan_Return" data-name="If Found Scan &amp; Return" transform="translate(30.496 22.63)" fill="#fff" font-size="15" font-family="SegoeUI, Segoe UI"><tspan x="0" y="0">If Found Scan &amp; Return</tspan></text>
    </g>
    <g id="Group_4683" data-name="Group 4683" transform="translate(0 38.452)">
      <g transform="matrix(1, 0, 0, 1, -24, -38.45)" filter="url(#Path_2012)">
        <g id="Path_2012-2" data-name="Path 2012" transform="translate(24 38.45)" fill="#fff">
          <path d="M 212.5677642822266 309.2473754882812 L 10.62838363647461 309.2473754882812 C 5.043575763702393 309.2473754882812 0.4999989569187164 304.8399658203125 0.4999989569187164 299.4224853515625 L 0.4999989569187164 10.32491874694824 C 0.4999989569187164 4.907418727874756 5.043575763702393 0.4999954402446747 10.62838363647461 0.4999954402446747 L 212.5677642822266 0.4999954402446747 C 218.1525726318359 0.4999954402446747 222.6961517333984 4.907418727874756 222.6961517333984 10.32491874694824 L 222.6961517333984 299.4224853515625 C 222.6961517333984 304.8399658203125 218.1525726318359 309.2473754882812 212.5677642822266 309.2473754882812 Z" stroke="none"/>
          <path d="M 10.62838745117188 1 C 5.31927490234375 1 1 5.183135986328125 1 10.32492065429688 L 1 299.4224853515625 C 1 304.5642700195312 5.31927490234375 308.7473754882812 10.62838745117188 308.7473754882812 L 212.5677337646484 308.7473754882812 C 217.8768463134766 308.7473754882812 222.1961517333984 304.5642700195312 222.1961517333984 299.4224853515625 L 222.1961517333984 10.32492065429688 C 222.1961517333984 5.183135986328125 217.8768463134766 1 212.5677337646484 1 L 10.62838745117188 1 M 10.62838745117188 0 L 212.5677337646484 0 C 218.4376525878906 0 223.1961517333984 4.62261962890625 223.1961517333984 10.32492065429688 L 223.1961517333984 299.4224853515625 C 223.1961517333984 305.124755859375 218.4376525878906 309.7473754882812 212.5677337646484 309.7473754882812 L 10.62838745117188 309.7473754882812 C 4.758499145507812 309.7473754882812 0 305.124755859375 0 299.4224853515625 L 0 10.32492065429688 C 0 4.62261962890625 4.758499145507812 0 10.62838745117188 0 Z" stroke="none" fill="#fc4041"/>
        </g>
      </g>
      <g id="Group_4682" data-name="Group 4682" transform="translate(14 16)">
        <g id="qrcode_4163273__ifetcher.com" data-name="qrcode_4163273_ ifetcher.com" transform="translate(0 66.063)">
          <rect id="Rectangle_773" data-name="Rectangle 773" width="194.756" height="192.684" transform="translate(0 0)" fill="#fff"/>
          <g id="Group_900" data-name="Group 900" transform="translate(3.97 3.927)" clip-path="url(#clip-path)">
            <rect id="Rectangle_774" data-name="Rectangle 774" width="193.911" height="191.848" transform="translate(-3.547 -3.509)" fill="#1d1d1f"/>
          </g>
        </g>
        <text id="No:_60831" data-name="No: 60831" transform="translate(2.782 261.5)" fill="#212121" font-size="12" font-family="SegoeUI, Segoe UI"><tspan x="0" y="13">No: 60831</tspan></text>
        <text id="SOS" transform="translate(157.196 258.747)" fill="#fc4041" font-size="14" font-family="SegoeUI-Bold, Segoe UI" font-weight="700"><tspan x="0" y="15">SOS</tspan></text>
        <g id="Flag_of_the_United_Arab_Emirates" transform="translate(2.782)">
          <rect id="green" width="98.657" height="17.892" fill="#00732f"/>
          <rect id="Rectangle_1308" data-name="Rectangle 1308" width="98.657" height="19.119" transform="translate(0 17.892)" fill="#fff"/>
          <rect id="Rectangle_1309" data-name="Rectangle 1309" width="98.657" height="17.892" transform="translate(0 37.012)"/>
          <rect id="red" width="20.867" height="54.904" fill="red"/>
        </g>
      </g>
      <path id="Vector" d="M16.316,1.972l2.448,4.845A3.02,3.02,0,0,0,20.74,8.261l4.438.729c2.838.468,3.506,2.5,1.461,4.514l-3.45,3.413a2.967,2.967,0,0,0-.723,2.491l.988,4.225c.779,3.344-1.016,4.638-4.006,2.89l-4.159-2.436a3.036,3.036,0,0,0-2.754,0L8.373,26.525c-2.977,1.748-4.785.44-4.006-2.89l.988-4.225a2.967,2.967,0,0,0-.723-2.491l-3.45-3.413C-.85,11.5-.2,9.459,2.642,8.991l4.438-.729A3.027,3.027,0,0,0,9.041,6.816l2.448-4.845C12.825-.657,14.995-.657,16.316,1.972Z" transform="translate(144.071 29.898)" fill="none" stroke="#fc4041" stroke-linecap="round" stroke-linejoin="round" stroke-width="1.5"/>
      <text id="B_" data-name="B+" transform="translate(181.119 33.909)" fill="#fc4041" font-size="12" font-family="SegoeUI, Segoe UI"><tspan x="0" y="13">B+</tspan></text>
    </g>
  </g>
</svg>
