<?xml version="1.0" standalone="no"?>
<!DOCTYPE svg PUBLIC "-//W3C//DTD SVG 20010904//EN"
 "http://www.w3.org/TR/2001/REC-SVG-20010904/DTD/svg10.dtd">
<svg version="1.0" xmlns="http://www.w3.org/2000/svg"
 width="1958.000000pt" height="894.000000pt" viewBox="0 0 1958.000000 894.000000"
 preserveAspectRatio="xMidYMid meet">

<g transform="translate(0.000000,894.000000) scale(0.100000,-0.100000)"
fill="#000000" stroke="none">
<path d="M7740 4470 l0 -4450 2062 0 2061 0 -6 2401 c-4 1321 -9 2404 -11
2407 -3 2 -69 14 -148 25 -79 12 -146 25 -149 30 -4 5 -25 8 -48 5 -22 -2 -41
-1 -41 3 0 4 -8 9 -18 11 -20 6 -16 25 -58 -287 -10 -73 -17 -357 -24 -1065
-7 -601 -14 -979 -21 -1003 -13 -48 -71 -113 -112 -126 -50 -15 -2782 -25
-2840 -10 -50 12 -107 65 -129 117 -16 40 -18 3480 -1 3538 25 88 58 129 133
163 45 20 58 21 1400 21 943 0 1367 -3 1394 -11 58 -16 124 -83 146 -149 15
-41 20 -49 21 -30 1 14 7 -112 14 -280 9 -229 18 -340 35 -447 26 -153 23
-149 95 -164 87 -17 101 -21 120 -29 30 -13 163 -40 195 -40 16 0 31 -6 33
-12 3 -7 6 419 6 947 l1 960 -43 16 c-51 19 -120 39 -164 46 -18 3 -33 9 -33
14 0 5 -12 9 -28 9 -15 0 -65 14 -112 31 -47 17 -105 37 -130 44 -25 7 -61 19
-80 25 -37 13 -49 16 -175 57 -44 14 -105 36 -136 49 -31 13 -64 24 -72 24 -9
0 -31 6 -49 14 -18 8 -85 33 -148 56 -117 43 -159 65 -105 55 17 -3 124 -21
238 -40 251 -41 655 -131 866 -191 84 -24 157 -44 162 -44 5 0 9 378 9 880 l0
880 -2055 0 -2055 0 0 -4450z m2747 2974 c-3 -3 -12 -4 -19 -1 -8 3 -5 6 6 6
11 1 17 -2 13 -5z"/>
<path d="M8643 6072 c-11 -7 -143 -364 -143 -388 0 -27 42 -34 212 -34 124 0
179 4 191 13 9 6 46 95 82 196 85 238 96 221 -149 221 -100 0 -186 -4 -193 -8z
m326 -51 c29 -18 4 -40 -51 -43 -52 -3 -53 -4 -56 -35 -3 -30 -1 -32 35 -35
30 -2 38 -7 38 -23 0 -16 -8 -21 -37 -23 l-38 -3 0 -79 c0 -66 -3 -81 -18 -89
-40 -21 -47 -1 -50 159 -3 107 0 155 8 166 14 16 145 20 169 5z m-221 -45 c3
-20 -2 -28 -20 -35 -46 -17 -81 26 -48 59 26 26 64 13 68 -24z m16 -82 c3 -9
6 -56 6 -104 0 -78 -2 -91 -19 -100 -35 -18 -51 12 -51 96 l0 74 -29 0 c-33 0
-46 13 -37 35 8 22 122 21 130 -1z"/>
<path d="M9160 5985 c0 -60 3 -75 15 -75 10 0 15 10 15 29 0 28 3 30 43 34
l42 4 -42 1 c-41 2 -43 4 -43 32 0 29 1 30 50 30 28 0 50 5 50 10 0 6 -28 10
-65 10 l-65 0 0 -75z"/>
<path d="M9900 6040 c0 -16 -7 -20 -30 -20 -54 0 -87 -54 -57 -93 13 -17 30
-21 85 -19 l32 2 0 75 c0 60 -3 75 -15 75 -8 0 -15 -9 -15 -20z m0 -80 c0 -38
-2 -40 -30 -40 -23 0 -31 5 -36 25 -9 38 2 55 36 55 28 0 30 -2 30 -40z"/>
<path d="M10130 6040 c-24 -24 -26 -76 -5 -107 17 -25 54 -33 98 -23 30 8 30
8 -13 9 -56 1 -70 14 -70 61 0 47 15 60 68 60 26 0 41 4 37 10 -12 19 -93 12
-115 -10z"/>
<path d="M10620 6036 c0 -8 -6 -17 -12 -20 -10 -5 -10 -7 0 -12 6 -3 12 -23
12 -44 0 -45 27 -69 58 -51 15 9 15 10 -4 11 -24 0 -34 18 -34 56 0 19 5 24
25 24 14 0 25 5 25 10 0 6 -11 10 -25 10 -16 0 -25 6 -25 15 0 8 -4 15 -10 15
-5 0 -10 -6 -10 -14z"/>
<path d="M11020 6036 c0 -8 -6 -17 -12 -20 -10 -5 -10 -7 0 -12 6 -3 12 -23
12 -45 0 -32 4 -41 25 -51 19 -9 28 -9 37 0 9 9 7 12 -10 12 -19 0 -22 5 -22
40 0 33 3 40 20 40 11 0 20 5 20 10 0 6 -9 10 -20 10 -11 0 -20 7 -20 15 0 8
-7 15 -15 15 -8 0 -15 -6 -15 -14z"/>
<path d="M9328 6009 c-20 -11 -26 -83 -8 -94 23 -14 94 -7 107 11 41 56 -35
121 -99 83z m77 -49 c0 -29 -4 -36 -23 -38 -29 -4 -52 14 -52 43 0 30 9 36 45
33 27 -3 30 -6 30 -38z"/>
<path d="M9474 6005 c-4 -8 -3 -31 0 -51 8 -41 28 -51 86 -46 l40 4 0 54 c0
40 -4 54 -14 54 -11 0 -16 -14 -18 -47 -3 -46 -4 -48 -33 -48 -29 0 -30 2 -33
48 -3 46 -17 62 -28 32z"/>
<path d="M9640 5963 c0 -40 4 -53 15 -53 11 0 15 12 15 46 0 45 0 45 33 42 30
-3 32 -6 35 -45 4 -58 32 -61 32 -4 0 54 -19 70 -80 69 l-50 -1 0 -54z"/>
<path d="M10290 6000 c-42 -42 -16 -93 49 -93 47 0 57 6 66 45 14 56 -71 92
-115 48z m85 -40 c0 -33 -2 -35 -35 -35 -29 0 -36 4 -38 23 -6 40 5 54 40 50
30 -3 33 -6 33 -38z"/>
<path d="M10444 6011 c-2 -2 -4 -26 -4 -53 0 -36 4 -48 15 -48 11 0 15 12 15
45 0 45 0 45 35 45 35 0 35 0 35 -45 0 -33 4 -45 15 -45 21 0 20 73 0 94 -15
14 -98 20 -111 7z"/>
<path d="M10725 6010 c-4 -6 10 -10 34 -10 30 0 41 -4 41 -15 0 -10 -10 -15
-34 -15 -36 0 -62 -21 -53 -43 7 -19 32 -23 92 -16 28 3 44 7 38 7 -8 1 -13
17 -13 40 0 21 -5 43 -12 50 -15 15 -84 16 -93 2z m75 -70 c0 -16 -7 -20 -30
-20 -18 0 -30 5 -30 13 0 20 10 27 37 27 16 0 23 -6 23 -20z"/>
<path d="M10892 6004 c-40 -28 -22 -91 28 -95 46 -4 65 4 25 10 -38 6 -40 8
-40 41 0 33 2 35 38 38 20 2 35 7 32 13 -9 14 -58 11 -83 -7z"/>
<path d="M9977 5923 c-10 -10 -8 -43 2 -43 9 0 21 24 21 41 0 11 -14 12 -23 2z"/>
<path d="M9200 5721 c0 -53 -4 -93 -11 -96 -17 -11 -80 -8 -92 4 -6 6 -10 27
-9 46 3 36 -11 48 -22 19 -22 -56 11 -94 82 -94 32 0 49 6 68 25 23 23 31 25
152 27 l127 3 -1 39 c-1 25 -8 44 -20 53 -24 17 -85 17 -110 -2 -25 -19 -34
-19 -34 0 0 8 -4 15 -10 15 -5 0 -10 -20 -10 -45 l0 -45 -40 0 -40 0 0 70 c0
56 -3 70 -15 70 -12 0 -15 -17 -15 -89z m251 19 c12 -7 19 -21 19 -40 l0 -30
-70 0 c-77 0 -88 11 -47 47 36 33 66 40 98 23z"/>
<path d="M9550 5730 c0 -64 3 -80 15 -80 12 0 15 16 15 80 0 64 -3 80 -15 80
-12 0 -15 -16 -15 -80z"/>
<path d="M9805 5800 c-3 -5 1 -10 9 -10 9 0 16 5 16 10 0 6 -4 10 -9 10 -6 0
-13 -4 -16 -10z"/>
<path d="M9850 5800 c0 -5 7 -10 16 -10 8 0 12 5 9 10 -3 6 -10 10 -16 10 -5
0 -9 -4 -9 -10z"/>
<path d="M10150 5800 c0 -5 5 -10 10 -10 6 0 10 5 10 10 0 6 -4 10 -10 10 -5
0 -10 -4 -10 -10z"/>
<path d="M10190 5800 c0 -5 7 -10 16 -10 8 0 12 5 9 10 -3 6 -10 10 -16 10 -5
0 -9 -4 -9 -10z"/>
<path d="M11040 5729 c0 -60 3 -80 13 -77 8 3 13 31 15 81 2 64 0 77 -13 77
-12 0 -15 -15 -15 -81z"/>
<path d="M10890 5780 c0 -5 5 -10 10 -10 6 0 10 5 10 10 0 6 -4 10 -10 10 -5
0 -10 -4 -10 -10z"/>
<path d="M9630 5741 c-26 -49 -7 -76 58 -87 34 -5 40 -9 31 -20 -6 -8 -30 -14
-53 -15 -37 0 -39 -1 -18 -11 28 -14 102 6 102 27 0 11 13 15 50 15 l50 0 0
55 c0 30 -4 55 -10 55 -5 0 -10 -20 -10 -45 l0 -45 -40 0 -40 0 0 45 0 45 -55
0 c-43 0 -56 -4 -65 -19z m100 -32 l0 -40 -37 3 c-34 3 -38 6 -41 32 -4 33 10
46 51 46 25 0 27 -3 27 -41z"/>
<path d="M9970 5741 c-15 -28 -12 -57 6 -72 10 -8 53 -15 115 -17 l99 -4 0 56
c0 31 -4 56 -10 56 -5 0 -10 -20 -10 -45 l0 -45 -40 0 -40 0 0 45 0 45 -55 0
c-43 0 -56 -4 -65 -19z m100 -32 l0 -40 -37 3 c-34 3 -38 6 -41 32 -4 33 10
46 51 46 25 0 27 -3 27 -41z"/>
<path d="M10279 5750 c37 -9 51 -24 51 -57 0 -21 -5 -23 -51 -23 -31 0 -48 -4
-44 -10 4 -6 67 -10 156 -10 l149 0 0 45 c0 34 -5 47 -19 55 -24 12 -111 14
-111 1 0 -4 11 -6 25 -3 13 2 36 1 50 -2 21 -5 25 -12 25 -41 l0 -35 -80 0
-80 0 0 29 c0 40 -24 61 -68 60 l-37 -1 34 -8z"/>
<path d="M10585 5736 c-12 -17 -13 -30 -6 -49 8 -21 19 -27 56 -33 57 -8 54
-27 -6 -35 -33 -4 -40 -7 -26 -13 21 -10 74 -1 94 15 8 8 13 34 13 75 l0 64
-55 0 c-46 0 -57 -4 -70 -24z m95 -27 l0 -40 -37 3 c-31 2 -39 7 -41 26 -5 32
15 52 49 52 27 0 29 -3 29 -41z"/>
<path d="M10960 5701 c0 -67 -13 -85 -61 -83 -45 1 -62 19 -54 59 4 25 2 33
-8 33 -15 0 -25 -40 -19 -71 7 -34 86 -50 136 -28 28 13 36 35 36 102 0 35 -4
47 -15 47 -12 0 -15 -13 -15 -59z"/>
<path d="M10450 5620 c0 -5 7 -10 15 -10 8 0 15 5 15 10 0 6 -7 10 -15 10 -8
0 -15 -4 -15 -10z"/>
<path d="M11030 5610 c-10 -18 -8 -20 22 -19 18 1 25 3 16 6 -10 2 -18 8 -18
13 0 5 8 11 18 13 13 4 12 5 -5 6 -13 1 -27 -7 -33 -19z"/>
<path d="M8552 5468 c-8 -8 -12 -66 -12 -193 0 -127 4 -185 12 -193 9 -9 69
-12 209 -12 248 0 229 -17 229 205 0 222 19 205 -229 205 -140 0 -200 -3 -209
-12z m418 -17 c6 -11 10 -87 10 -176 0 -89 -4 -165 -10 -176 -10 -18 -23 -19
-203 -19 -137 0 -196 3 -205 12 -13 13 -18 359 -5 371 3 4 95 7 204 7 186 0
199 -1 209 -19z"/>
<path d="M8738 5403 c12 -2 32 -2 45 0 12 2 2 4 -23 4 -25 0 -35 -2 -22 -4z"/>
<path d="M8700 5360 c-18 -12 -2 -12 25 0 13 6 15 9 5 9 -8 0 -22 -4 -30 -9z"/>
<path d="M8795 5360 c27 -12 43 -12 25 0 -8 5 -22 9 -30 9 -10 0 -8 -3 5 -9z"/>
<path d="M8730 5330 c-11 -8 -7 -9 15 -4 37 8 45 14 19 14 -10 0 -26 -5 -34
-10z"/>
<path d="M8627 5244 c-13 -14 -7 -22 24 -33 20 -7 28 -15 23 -23 -5 -10 -4
-10 6 -1 14 13 5 33 -15 33 -8 0 -18 7 -23 15 -4 9 -11 12 -15 9z"/>
<path d="M8721 5231 c-15 -27 8 -54 43 -49 40 4 56 32 32 55 -18 17 -18 17 -8
-3 14 -27 0 -47 -29 -42 -27 3 -38 36 -17 49 9 6 9 9 1 9 -7 0 -17 -8 -22 -19z"/>
<path d="M8837 5244 c-13 -14 -7 -22 24 -33 17 -6 28 -15 24 -21 -3 -5 -1 -10
4 -10 21 0 11 31 -13 40 -13 5 -26 14 -28 20 -2 6 -7 8 -11 4z"/>
<path d="M8628 5183 c7 -3 16 -2 19 1 4 3 -2 6 -13 5 -11 0 -14 -3 -6 -6z"/>
<path d="M8838 5183 c7 -3 16 -2 19 1 4 3 -2 6 -13 5 -11 0 -14 -3 -6 -6z"/>
<path d="M9096 5458 c-13 -18 -16 -54 -16 -183 0 -221 -18 -205 221 -205 112
0 198 4 210 10 18 10 19 23 19 193 0 129 -4 187 -12 195 -9 9 -69 12 -209 12
-193 0 -198 -1 -213 -22z m422 -172 c2 -123 -1 -183 -9 -192 -9 -11 -53 -14
-205 -14 -181 0 -194 1 -204 19 -13 26 -13 326 0 352 10 18 21 19 213 17 l202
-3 3 -179z"/>
<path d="M9191 5318 c1 -16 3 -18 6 -6 2 9 14 19 26 21 18 4 17 5 -5 6 -23 1
-28 -3 -27 -21z"/>
<path d="M9357 5333 c12 -2 24 -12 26 -21 3 -12 5 -10 6 6 1 18 -4 22 -26 21
-23 -1 -24 -2 -6 -6z"/>
<path d="M9131 5274 c0 -11 3 -14 6 -6 3 7 2 16 -1 19 -3 4 -6 -2 -5 -13z"/>
<path d="M9191 5228 c-1 -24 3 -28 27 -27 22 1 23 2 5 6 -13 2 -24 13 -26 26
-4 18 -5 17 -6 -5z"/>
<path d="M9381 5233 c-1 -14 -9 -23 -23 -26 l-23 -4 23 -2 c24 -1 38 19 29 41
-3 7 -6 3 -6 -9z"/>
<path d="M9642 5468 c-8 -8 -12 -65 -12 -188 0 -159 2 -179 18 -193 16 -15 46
-17 209 -17 171 0 192 2 206 18 14 16 17 44 17 186 0 96 -4 176 -10 187 -10
18 -23 19 -213 19 -145 0 -206 -3 -215 -12z m416 -10 c15 -15 17 -330 2 -359
-10 -18 -23 -19 -203 -19 -137 0 -196 3 -205 12 -8 8 -12 63 -12 183 0 120 4
175 12 183 8 8 68 12 203 12 135 0 195 -4 203 -12z"/>
<path d="M9724 5366 c-3 -7 -3 -35 -1 -62 l3 -49 2 57 c1 34 7 58 15 61 9 4 9
6 -1 6 -7 1 -15 -5 -18 -13z"/>
<path d="M9967 5373 c6 -5 14 -31 16 -58 l4 -50 -1 54 c-1 39 -5 56 -16 58
-10 3 -11 2 -3 -4z"/>
<path d="M9868 5283 c-27 -26 -28 -26 -48 -8 -11 10 -23 15 -27 11 -7 -6 34
-45 47 -46 3 0 23 16 45 35 24 20 34 34 25 35 -9 0 -28 -12 -42 -27z"/>
<path d="M9730 5241 c0 -6 4 -13 10 -16 6 -3 7 1 4 9 -7 18 -14 21 -14 7z"/>
<path d="M10392 5278 l3 -193 298 -3 297 -2 0 195 0 195 -300 0 -300 0 2 -192z
m201 10 c15 -35 27 -69 27 -75 0 -21 -28 -15 -35 7 -4 14 -15 20 -35 20 -19 0
-33 -7 -40 -20 -11 -20 -40 -28 -40 -11 0 5 13 39 30 75 38 87 56 87 93 4z
m171 46 c12 -11 13 -20 6 -34 -7 -13 -7 -21 0 -25 17 -11 11 -54 -9 -65 -11
-5 -40 -10 -65 -10 l-46 0 0 75 0 75 49 0 c32 0 55 -6 65 -16z m116 -24 c0
-13 7 -20 20 -20 11 0 20 -7 20 -15 0 -8 -9 -15 -20 -15 -13 0 -20 -7 -20 -20
0 -11 -7 -20 -15 -20 -8 0 -15 9 -15 20 0 13 -7 20 -20 20 -11 0 -20 7 -20 15
0 8 9 15 20 15 13 0 20 7 20 20 0 11 7 20 15 20 8 0 15 -9 15 -20z"/>
<path d="M10540 5303 c0 -6 -3 -18 -6 -27 -4 -11 -1 -16 10 -16 9 0 16 6 16
13 0 16 -20 46 -20 30z"/>
<path d="M10680 5304 c0 -11 8 -14 27 -12 39 4 42 28 4 28 -21 0 -31 -5 -31
-16z"/>
<path d="M10680 5250 c0 -15 7 -20 29 -20 34 0 51 18 30 31 -26 17 -59 10 -59
-11z"/>
<path d="M10460 4895 l0 -125 230 0 230 0 0 125 0 125 -230 0 -230 0 0 -125z"/>
<path d="M8500 4710 l0 -190 195 0 195 0 0 190 0 190 -195 0 -195 0 0 -190z
m330 0 l0 -140 -140 0 -140 0 0 140 0 140 140 0 140 0 0 -140z"/>
<path d="M8610 4710 l0 -80 85 0 85 0 0 80 0 80 -85 0 -85 0 0 -80z"/>
<path d="M9060 4850 c0 -47 2 -50 25 -50 23 0 25 3 25 50 0 47 -2 50 -25 50
-23 0 -25 -3 -25 -50z"/>
<path d="M9170 4850 c0 -47 2 -50 25 -50 20 0 25 5 25 25 0 24 3 25 60 25 57
0 60 -1 60 -25 0 -20 5 -25 25 -25 24 0 25 -3 25 -60 0 -57 -1 -60 -25 -60
-21 0 -25 5 -25 30 0 27 -3 30 -30 30 -25 0 -30 4 -30 25 0 20 -5 25 -25 25
-20 0 -25 -5 -25 -25 0 -20 5 -25 25 -25 21 0 25 -5 25 -30 l0 -30 -110 0
-110 0 0 30 c0 30 -1 30 -55 30 l-55 0 0 -110 0 -110 25 0 c25 0 25 1 25 80
l0 80 30 0 c25 0 30 -4 30 -25 0 -20 5 -25 25 -25 21 0 25 -5 25 -30 0 -25 -4
-30 -25 -30 -20 0 -25 -5 -25 -25 0 -20 5 -25 25 -25 20 0 25 5 25 25 0 21 5
25 31 25 27 0 30 -3 27 -27 -2 -22 -9 -29 -30 -31 -22 -3 -28 -9 -28 -28 0
-19 -5 -24 -25 -24 -20 0 -25 5 -25 25 0 21 -5 25 -30 25 -25 0 -30 -4 -30
-25 0 -25 -1 -25 -85 -25 l-85 0 0 -30 c0 -25 -4 -30 -25 -30 -21 0 -25 5 -25
30 0 30 -1 30 -55 30 l-54 0 -3 -57 c-3 -55 -4 -58 -30 -61 -28 -3 -28 -3 -28
57 l0 61 -30 0 -30 0 0 -60 c0 -57 -1 -60 -25 -60 -20 0 -25 -5 -25 -25 l0
-25 110 0 110 0 0 -55 c0 -54 0 -55 30 -55 27 0 30 -3 30 -30 0 -27 -3 -30
-30 -30 l-30 0 0 -85 c0 -84 0 -85 -25 -85 -20 0 -25 -5 -25 -25 0 -20 5 -25
25 -25 20 0 25 5 25 25 0 25 1 25 85 25 84 0 85 0 85 -25 0 -21 -5 -25 -30
-25 -27 0 -30 -3 -30 -30 0 -27 3 -30 30 -30 25 0 30 -4 30 -25 0 -24 3 -25
55 -25 52 0 55 1 55 25 0 21 5 25 30 25 30 0 30 -1 30 -55 l0 -55 -55 0 -55 0
0 -55 c0 -52 1 -55 25 -55 20 0 25 5 25 25 0 21 5 25 30 25 25 0 30 -4 30 -25
0 -20 5 -25 25 -25 24 0 25 -3 25 -55 0 -54 0 -55 30 -55 30 0 30 1 30 55 l0
55 55 0 c54 0 55 0 55 -30 0 -25 -4 -30 -25 -30 -20 0 -25 -5 -25 -25 0 -20 5
-25 25 -25 20 0 25 5 25 25 0 21 5 25 31 25 27 0 30 -3 27 -27 -2 -22 -9 -29
-30 -31 -22 -3 -28 -9 -28 -28 0 -19 -5 -24 -25 -24 -21 0 -25 -5 -25 -30 0
-25 4 -30 25 -30 20 0 25 -5 25 -25 0 -20 -5 -25 -25 -25 -21 0 -25 -5 -25
-30 l0 -30 110 0 110 0 0 30 c0 27 -3 30 -30 30 -30 0 -30 1 -30 55 l0 55 60
0 60 0 0 -30 c0 -25 4 -30 25 -30 20 0 25 -5 25 -25 0 -20 -5 -25 -25 -25 -21
0 -25 -5 -25 -30 0 -25 4 -30 25 -30 21 0 25 5 25 30 0 30 1 30 55 30 52 0 55
1 55 25 0 24 3 25 55 25 54 0 55 0 55 30 0 25 -4 30 -25 30 -21 0 -25 5 -25
31 0 27 3 30 28 27 21 -2 28 -9 30 -30 3 -22 9 -28 28 -28 20 0 24 5 24 30 0
27 3 30 30 30 25 0 30 4 30 25 0 20 5 25 25 25 20 0 25 -5 25 -25 0 -22 4 -24
58 -27 54 -3 57 -4 60 -30 3 -22 9 -28 28 -28 24 0 24 0 24 109 l0 110 -27 3
c-22 2 -29 9 -31 31 -3 21 -9 27 -28 27 -19 0 -24 5 -24 25 0 21 -5 25 -30 25
-30 0 -30 -1 -30 -55 0 -54 0 -55 30 -55 25 0 30 -4 30 -25 0 -24 -3 -25 -55
-25 l-55 0 0 110 0 110 25 0 c21 0 25 5 25 30 0 27 3 30 30 30 30 0 30 -1 30
-55 0 -52 1 -55 25 -55 24 0 25 3 25 55 0 52 -1 55 -25 55 -20 0 -25 5 -25 25
0 20 5 25 25 25 21 0 25 5 25 30 0 25 -4 30 -25 30 -20 0 -25 5 -25 25 0 21
-5 25 -30 25 -25 0 -30 -4 -30 -25 0 -21 5 -25 30 -25 27 0 30 -3 30 -30 l0
-30 -85 0 -85 0 0 30 c0 27 3 30 30 30 25 0 30 4 30 25 0 21 -5 25 -30 25 -27
0 -30 3 -30 30 0 27 3 30 30 30 25 0 30 -4 30 -25 0 -20 5 -25 25 -25 20 0 25
5 25 25 0 21 5 25 30 25 27 0 30 3 30 30 0 30 1 30 55 30 l55 0 0 79 c0 79 0
80 -27 83 -27 3 -28 6 -31 61 -3 53 -5 57 -27 57 -21 0 -25 -5 -25 -30 0 -27
-3 -30 -30 -30 -27 0 -30 3 -30 30 l0 30 -80 0 -80 0 0 -85 0 -85 -30 0 -30 0
0 85 0 85 -55 0 c-52 0 -55 1 -55 25 0 21 -5 25 -30 25 -25 0 -30 -4 -30 -25
0 -20 -5 -25 -24 -25 -19 0 -25 -6 -28 -27 -2 -22 -9 -29 -30 -31 l-28 -3 0
85 c0 85 0 86 25 86 20 0 25 5 25 25 0 20 -5 25 -25 25 -20 0 -25 -5 -25 -25
0 -21 -5 -25 -30 -25 -30 0 -30 1 -30 55 l0 55 55 0 55 0 0 55 c0 52 -1 55
-25 55 -21 0 -25 5 -25 30 0 27 3 30 30 30 25 0 30 -4 30 -25 0 -20 5 -25 25
-25 24 0 25 -3 25 -60 0 -57 -1 -60 -25 -60 -20 0 -25 -5 -25 -25 0 -24 3 -25
55 -25 52 0 55 1 55 25 0 20 5 25 25 25 21 0 25 5 25 30 0 25 -4 30 -25 30
-21 0 -25 5 -25 30 0 25 4 30 25 30 23 0 25 3 25 50 l0 50 -110 0 -110 0 0
-25 c0 -24 -3 -25 -55 -25 -52 0 -55 1 -55 25 0 25 -1 25 -85 25 l-85 0 0 -50z
m170 -225 c0 -52 1 -55 25 -55 24 0 25 -3 25 -55 0 -52 -1 -55 -25 -55 -21 0
-25 -5 -25 -30 0 -25 4 -30 25 -30 20 0 25 -5 25 -24 0 -19 6 -25 28 -28 21
-2 28 -9 30 -30 3 -25 0 -28 -27 -28 -28 0 -31 -3 -31 -30 0 -25 -4 -30 -25
-30 -24 0 -25 -3 -25 -55 0 -52 1 -55 25 -55 20 0 25 -5 25 -25 0 -25 1 -25
85 -25 83 0 85 0 85 24 0 19 -6 25 -27 28 -22 2 -28 8 -28 28 0 20 6 26 28 28
24 3 27 0 27 -27 0 -28 3 -31 30 -31 25 0 30 -4 30 -25 0 -20 5 -25 25 -25
l25 0 0 110 0 110 -25 0 c-21 0 -25 -5 -25 -30 l0 -31 -57 3 c-55 3 -58 4 -61
31 -3 24 0 27 27 27 31 0 31 0 31 55 0 54 0 55 30 55 25 0 30 -4 30 -25 0 -20
5 -25 25 -25 21 0 25 -5 25 -30 0 -27 3 -30 30 -30 30 0 30 -1 30 -55 0 -52 1
-55 25 -55 20 0 25 5 25 25 0 21 5 25 30 25 25 0 30 -4 30 -25 0 -20 -5 -25
-25 -25 -22 0 -24 -4 -27 -57 l-3 -58 -57 -3 c-54 -3 -58 -5 -58 -27 0 -21 5
-25 30 -25 27 0 30 -3 30 -30 0 -30 1 -30 55 -30 52 0 55 -1 55 -25 0 -21 5
-25 30 -25 27 0 30 -3 30 -30 0 -27 -3 -30 -30 -30 -27 0 -30 3 -30 30 0 25
-4 30 -24 30 -19 0 -25 -6 -28 -27 -2 -22 -9 -29 -30 -31 -21 -3 -27 -9 -30
-30 -2 -21 -8 -27 -28 -27 -20 0 -26 6 -28 28 -3 24 0 27 27 27 31 0 31 0 31
55 0 54 0 55 -30 55 -27 0 -30 3 -30 30 0 25 -4 30 -25 30 -20 0 -25 5 -25 25
0 21 -5 25 -30 25 -25 0 -30 -4 -30 -25 0 -20 -5 -25 -25 -25 -21 0 -25 -5
-25 -30 0 -30 1 -30 55 -30 52 0 55 -1 55 -25 0 -24 -3 -25 -55 -25 l-55 0 0
-55 c0 -52 1 -55 25 -55 20 0 25 5 25 25 0 21 5 25 31 25 27 0 30 -3 27 -27
-2 -22 -9 -29 -30 -31 -28 -3 -28 -4 -28 -83 l0 -79 -55 0 -54 0 -3 -57 c-3
-54 -5 -58 -28 -58 -20 0 -26 6 -28 28 -3 21 -9 27 -28 27 l-24 0 0 170 0 170
-30 0 -30 0 0 -116 0 -115 -27 3 c-26 3 -28 7 -31 56 -3 48 -5 52 -28 52 -20
0 -24 5 -24 30 0 27 -3 30 -30 30 -27 0 -30 3 -30 30 0 27 3 30 30 30 25 0 30
4 30 25 l0 25 110 0 110 0 0 30 c0 25 -4 30 -25 30 -24 0 -25 3 -25 55 0 54 0
55 -30 55 -27 0 -30 3 -30 30 0 27 -3 30 -30 30 -25 0 -30 4 -30 25 0 20 -5
25 -25 25 -24 0 -25 -3 -25 -55 0 -54 0 -55 30 -55 25 0 30 -4 30 -25 0 -20 5
-25 25 -25 21 0 25 -5 25 -30 0 -27 -3 -30 -30 -30 -25 0 -30 4 -30 25 0 20
-5 25 -25 25 -20 0 -25 -5 -25 -25 0 -21 -5 -25 -30 -25 l-30 0 0 140 0 140
55 0 54 0 3 83 c3 81 3 82 31 85 21 3 27 9 27 27 0 18 -6 24 -27 27 -22 2 -29
9 -31 31 -3 21 -9 27 -28 27 -20 0 -24 5 -24 31 0 27 3 30 28 27 21 -2 28 -9
30 -30 3 -22 9 -28 28 -28 22 0 24 3 24 55 0 54 0 55 30 55 30 0 30 -1 30 -55z
m-562 -252 c-2 -22 -9 -29 -30 -31 -25 -3 -28 0 -28 27 0 28 3 31 31 31 27 0
30 -3 27 -27z m110 0 c-2 -22 -8 -28 -28 -28 -20 0 -26 6 -28 28 -3 24 0 27
28 27 28 0 31 -3 28 -27z m280 0 c-3 -28 -4 -28 -85 -31 l-83 -3 0 -54 c0 -55
0 -55 30 -55 l31 0 -3 -82 c-3 -82 -3 -83 -30 -86 -28 -3 -28 -3 -28 57 l0 61
-30 0 c-25 0 -30 4 -30 25 0 24 -3 25 -55 25 -52 0 -55 -1 -55 -25 0 -21 5
-25 30 -25 27 0 30 -3 30 -30 0 -27 3 -30 31 -30 27 0 30 -3 27 -27 -2 -22 -9
-29 -30 -31 -22 -3 -28 -9 -28 -28 0 -22 -3 -24 -55 -24 -54 0 -55 0 -55 30 0
30 1 30 55 30 52 0 55 1 55 25 0 21 -5 25 -30 25 -27 0 -30 3 -30 30 0 25 -4
30 -25 30 -24 0 -25 3 -25 55 l0 55 79 0 c79 0 80 0 83 28 2 21 9 28 31 30 21
3 27 9 27 28 0 24 2 24 86 24 l85 0 -3 -27z m782 -3 c0 -30 -1 -30 -55 -30
-54 0 -55 0 -55 30 0 30 1 30 55 30 54 0 55 0 55 -30z m118 -107 c-2 -22 -9
-29 -30 -31 -22 -3 -28 -9 -28 -28 0 -20 -5 -24 -30 -24 -30 0 -30 1 -30 55
l0 55 61 0 c60 0 60 0 57 -27z m-1068 -283 c0 -27 3 -30 30 -30 25 0 30 -4 30
-25 0 -21 -5 -25 -30 -25 -27 0 -30 -3 -30 -31 0 -27 -3 -30 -27 -27 -28 3
-28 4 -31 86 l-3 82 31 0 c27 0 30 -3 30 -30z m170 -305 c0 -54 0 -55 -30 -55
-30 0 -30 1 -30 55 0 54 0 55 30 55 30 0 30 -1 30 -55z m670 -30 l0 -85 -85 0
-85 0 0 85 0 85 85 0 85 0 0 -85z m225 -55 c0 -20 -6 -26 -27 -28 -25 -3 -28
0 -28 28 0 28 3 31 28 28 21 -2 27 -8 27 -28z m-505 -61 c0 -27 -3 -30 -27
-27 -22 2 -29 9 -31 31 -3 24 0 27 27 27 28 0 31 -3 31 -31z m110 -49 c0 -25
-4 -30 -25 -30 -21 0 -25 5 -25 30 0 25 4 30 25 30 21 0 25 -5 25 -30z m-330
-60 c0 -27 -3 -30 -30 -30 -27 0 -30 3 -30 30 0 27 3 30 30 30 27 0 30 -3 30
-30z"/>
<path d="M9280 4545 c0 -21 5 -25 30 -25 25 0 30 4 30 25 0 21 -5 25 -30 25
-25 0 -30 -4 -30 -25z"/>
<path d="M9280 4315 c0 -20 -5 -25 -25 -25 -21 0 -25 -5 -25 -30 0 -25 4 -30
25 -30 21 0 25 5 25 30 0 30 1 30 55 30 52 0 55 1 55 25 0 24 -3 25 -55 25
-52 0 -55 -1 -55 -25z"/>
<path d="M9390 3810 l0 -140 55 0 c54 0 55 0 55 30 0 25 -4 30 -25 30 -25 0
-25 1 -25 85 0 84 0 85 25 85 20 0 25 5 25 25 0 24 -3 25 -55 25 l-55 0 0
-140z"/>
<path d="M9730 3645 c0 -20 5 -25 25 -25 20 0 25 5 25 25 0 20 -5 25 -25 25
-20 0 -25 -5 -25 -25z"/>
<path d="M9730 4710 l0 -190 195 0 195 0 0 190 0 190 -195 0 -195 0 0 -190z
m340 0 l0 -140 -145 0 -145 0 0 140 0 140 145 0 145 0 0 -140z"/>
<path d="M9840 4710 l0 -80 85 0 85 0 0 80 0 80 -85 0 -85 0 0 -80z"/>
<path d="M8950 4825 c0 -20 5 -25 25 -25 20 0 25 5 25 25 0 20 -5 25 -25 25
-20 0 -25 -5 -25 -25z"/>
<path d="M9110 4765 c0 -21 5 -25 30 -25 25 0 30 4 30 25 0 21 -5 25 -30 25
-25 0 -30 -4 -30 -25z"/>
<path d="M10460 4705 c0 -13 33 -15 235 -15 202 0 235 2 235 15 0 13 -33 15
-235 15 -202 0 -235 -2 -235 -15z"/>
<path d="M10460 4670 c0 -6 83 -10 229 -10 143 0 232 4 236 10 4 7 -75 10
-229 10 -151 0 -236 -4 -236 -10z"/>
<path d="M10460 4630 c0 -19 7 -20 235 -20 228 0 235 1 235 20 0 19 -7 20
-235 20 -228 0 -235 -1 -235 -20z"/>
<path d="M9620 4570 c0 -47 2 -50 25 -50 23 0 25 3 25 50 0 47 -2 50 -25 50
-23 0 -25 -3 -25 -50z"/>
<path d="M9510 4545 c0 -20 5 -25 25 -25 20 0 25 5 25 25 0 20 -5 25 -25 25
-20 0 -25 -5 -25 -25z"/>
<path d="M10460 4560 c0 -6 85 -10 235 -10 150 0 235 4 235 10 0 6 -85 10
-235 10 -150 0 -235 -4 -235 -10z"/>
<path d="M10460 4490 c0 -6 83 -10 229 -10 143 0 232 4 236 10 4 7 -75 10
-229 10 -151 0 -236 -4 -236 -10z"/>
<path d="M10460 4460 c0 -6 85 -10 235 -10 150 0 235 4 235 10 0 6 -85 10
-235 10 -150 0 -235 -4 -235 -10z"/>
<path d="M10578 4413 c68 -2 176 -2 240 0 64 1 9 3 -123 3 -132 0 -185 -2
-117 -3z"/>
<path d="M10578 4363 c68 -2 176 -2 240 0 64 1 9 3 -123 3 -132 0 -185 -2
-117 -3z"/>
<path d="M10460 4330 c0 -6 85 -10 235 -10 150 0 235 4 235 10 0 6 -85 10
-235 10 -150 0 -235 -4 -235 -10z"/>
<path d="M10578 4273 c68 -2 176 -2 240 0 64 1 9 3 -123 3 -132 0 -185 -2
-117 -3z"/>
<path d="M8500 4175 c0 -52 1 -55 25 -55 25 0 25 -1 25 -85 l0 -85 55 0 55 0
0 115 0 115 -55 0 c-52 0 -55 1 -55 25 0 20 -5 25 -25 25 -24 0 -25 -3 -25
-55z"/>
<path d="M10460 4220 c0 -6 83 -10 229 -10 143 0 232 4 236 10 4 7 -75 10
-229 10 -151 0 -236 -4 -236 -10z"/>
<path d="M10460 4165 c0 -13 33 -15 235 -15 202 0 235 2 235 15 0 13 -33 15
-235 15 -202 0 -235 -2 -235 -15z"/>
<path d="M10460 4130 c0 -6 83 -10 229 -10 143 0 232 4 236 10 4 7 -75 10
-229 10 -151 0 -236 -4 -236 -10z"/>
<path d="M10460 4100 c0 -6 85 -10 235 -10 150 0 235 4 235 10 0 6 -85 10
-235 10 -150 0 -235 -4 -235 -10z"/>
<path d="M10460 4050 c0 -20 5 -20 232 -18 212 3 233 5 236 21 3 16 -13 17
-232 17 -230 0 -236 -1 -236 -20z"/>
<path d="M10070 4035 c0 -20 5 -25 25 -25 20 0 25 5 25 25 0 20 -5 25 -25 25
-20 0 -25 -5 -25 -25z"/>
<path d="M10460 3990 c0 -6 85 -10 235 -10 150 0 235 4 235 10 0 6 -85 10
-235 10 -150 0 -235 -4 -235 -10z"/>
<path d="M10460 3955 c0 -13 30 -15 232 -13 174 2 232 6 236 16 3 9 -48 12
-232 12 -204 0 -236 -2 -236 -15z"/>
<path d="M10460 3900 c0 -6 85 -10 235 -10 150 0 235 4 235 10 0 6 -85 10
-235 10 -150 0 -235 -4 -235 -10z"/>
<path d="M10460 3848 c0 -5 107 -7 238 -6 238 2 211 6 -81 10 -86 2 -157 0
-157 -4z"/>
<path d="M8500 3785 c0 -52 2 -55 24 -55 19 0 25 6 28 28 3 25 7 27 56 30 48
3 52 5 52 28 0 23 -2 24 -80 24 l-80 0 0 -55z"/>
<path d="M8720 3810 c0 -25 -4 -30 -25 -30 -20 0 -25 -5 -25 -25 l0 -25 110 0
110 0 0 25 c0 24 -3 25 -55 25 -54 0 -55 0 -55 30 0 27 -3 30 -30 30 -27 0
-30 -3 -30 -30z"/>
<path d="M10460 3810 c0 -19 7 -20 235 -20 228 0 235 1 235 20 0 19 -7 20
-235 20 -228 0 -235 -1 -235 -20z"/>
<path d="M10070 3755 c0 -20 5 -25 25 -25 20 0 25 5 25 25 0 20 -5 25 -25 25
-20 0 -25 -5 -25 -25z"/>
<path d="M10460 3770 c0 -6 83 -10 229 -10 143 0 232 4 236 10 4 7 -75 10
-229 10 -151 0 -236 -4 -236 -10z"/>
<path d="M10460 3715 c0 -13 33 -15 235 -15 202 0 235 2 235 15 0 13 -33 15
-235 15 -202 0 -235 -2 -235 -15z"/>
<path d="M8500 3475 l0 -195 195 0 195 0 0 195 0 195 -195 0 -195 0 0 -195z
m330 5 l0 -140 -140 0 -140 0 0 140 0 140 140 0 140 0 0 -140z"/>
<path d="M8610 3475 l0 -85 85 0 85 0 0 85 0 85 -85 0 -85 0 0 -85z"/>
<path d="M10460 3650 c0 -6 85 -10 235 -10 150 0 235 4 235 10 0 6 -85 10
-235 10 -150 0 -235 -4 -235 -10z"/>
<path d="M10460 3590 c0 -6 83 -10 229 -10 143 0 232 4 236 10 4 7 -75 10
-229 10 -151 0 -236 -4 -236 -10z"/>
<path d="M10578 3563 c68 -2 176 -2 240 0 64 1 9 3 -123 3 -132 0 -185 -2
-117 -3z"/>
<path d="M8950 3505 l0 -55 80 0 c79 0 80 0 80 25 0 20 -5 25 -25 25 -21 0
-25 5 -25 30 0 30 -1 30 -55 30 l-55 0 0 -55z"/>
<path d="M10460 3508 c0 -10 52 -12 235 -10 142 2 235 7 235 12 0 6 -91 10
-235 10 -181 0 -235 -3 -235 -12z"/>
<path d="M9900 3420 c0 -79 0 -80 25 -80 21 0 25 -5 25 -30 0 -30 1 -30 55
-30 54 0 55 0 55 30 0 25 -4 30 -25 30 -20 0 -25 5 -25 25 0 20 5 25 25 25 21
0 25 5 25 30 0 25 -4 30 -25 30 -21 0 -25 -5 -25 -30 0 -27 -3 -30 -30 -30
-30 0 -30 1 -30 55 0 52 -1 55 -25 55 -25 0 -25 -1 -25 -80z"/>
<path d="M10578 3473 c68 -2 176 -2 240 0 64 1 9 3 -123 3 -132 0 -185 -2
-117 -3z"/>
<path d="M10578 3423 c68 -2 176 -2 240 0 64 1 9 3 -123 3 -132 0 -185 -2
-117 -3z"/>
<path d="M8950 3365 c0 -24 3 -25 55 -25 52 0 55 1 55 25 0 24 -3 25 -55 25
-52 0 -55 -1 -55 -25z"/>
<path d="M9170 3365 c0 -21 -5 -25 -30 -25 -27 0 -30 -3 -30 -30 0 -27 3 -30
30 -30 27 0 30 3 30 30 0 25 4 30 25 30 20 0 25 5 25 25 0 20 -5 25 -25 25
-20 0 -25 -5 -25 -25z"/>
<path d="M9790 3365 c0 -20 5 -25 25 -25 20 0 25 5 25 25 0 20 -5 25 -25 25
-20 0 -25 -5 -25 -25z"/>
<path d="M10460 3360 c0 -6 85 -10 235 -10 150 0 235 4 235 10 0 6 -85 10
-235 10 -150 0 -235 -4 -235 -10z"/>
<path d="M10460 3323 c0 -5 71 -7 157 -5 292 4 319 8 81 10 -131 1 -238 -1
-238 -5z"/>
<path d="M10460 3290 c0 -6 85 -10 235 -10 150 0 235 4 235 10 0 6 -85 10
-235 10 -150 0 -235 -4 -235 -10z"/>
<path d="M8735 3071 c-37 -16 -58 -50 -63 -100 -6 -70 11 -116 54 -136 91 -43
169 61 98 132 -21 21 -32 24 -60 20 -32 -5 -35 -4 -32 15 5 33 33 46 56 25 37
-34 75 -15 44 22 -19 24 -67 35 -97 22z m59 -137 c18 -46 -7 -84 -43 -64 -20
10 -30 58 -14 73 12 13 51 7 57 -9z"/>
<path d="M8974 3065 c-3 -8 -21 -24 -40 -36 -20 -12 -34 -29 -34 -40 0 -18 2
-18 35 -5 l35 15 0 -85 c0 -83 0 -84 25 -84 l25 0 0 125 c0 119 -1 125 -20
125 -11 0 -23 -7 -26 -15z"/>
<path d="M9152 3070 c-39 -16 -48 -70 -16 -96 11 -9 10 -14 -6 -29 -39 -35
-21 -97 34 -115 44 -14 81 -4 106 27 26 33 25 58 -1 84 -19 19 -19 22 -5 38
35 39 7 88 -55 96 -19 3 -44 0 -57 -5z m73 -60 c0 -18 -6 -26 -23 -28 -24 -4
-38 18 -28 44 3 9 15 14 28 12 17 -2 23 -10 23 -28z m3 -86 c13 -23 3 -52 -20
-59 -22 -8 -48 11 -48 34 0 38 51 56 68 25z"/>
<path d="M9383 3073 c-24 -5 -53 -38 -53 -60 0 -21 40 -15 59 8 12 16 23 20
39 15 38 -13 27 -47 -37 -110 -33 -32 -62 -67 -64 -77 -5 -18 2 -19 89 -19 87
0 94 1 94 20 0 17 -7 20 -50 20 -27 0 -50 3 -50 8 0 4 16 20 35 35 73 58 81
127 19 153 -34 14 -41 15 -81 7z"/>
<path d="M9603 3064 c-36 -18 -53 -56 -53 -121 0 -86 54 -137 121 -114 41 14
58 38 59 79 0 49 -40 86 -86 79 -32 -5 -35 -4 -32 15 5 32 36 47 52 26 7 -10
23 -18 35 -18 32 0 27 36 -9 55 -36 19 -47 19 -87 -1z m71 -130 c18 -46 -7
-84 -43 -64 -20 10 -30 58 -14 73 12 13 51 7 57 -9z"/>
<path d="M9814 3066 c-28 -13 -44 -33 -44 -57 0 -17 42 -9 59 12 12 16 23 20
39 15 38 -13 27 -47 -37 -110 -33 -32 -62 -67 -64 -77 -5 -18 2 -19 89 -19 87
0 94 1 94 20 0 17 -7 20 -50 20 -27 0 -50 4 -50 9 0 5 16 21 35 35 50 39 70
80 55 116 -7 17 -24 33 -42 39 -39 14 -46 13 -84 -3z"/>
<path d="M10230 2835 l0 -245 415 0 415 0 0 80 0 80 -325 0 -325 0 0 85 0 85
325 0 325 0 0 80 0 80 -415 0 -415 0 0 -245z"/>
<path d="M8988 2628 c-6 -18 3 -68 13 -68 5 0 9 10 10 23 0 12 2 30 4 40 4 19
-21 24 -27 5z"/>
<path d="M9104 2626 c-11 -28 0 -61 21 -63 11 -2 14 0 8 3 -15 7 -17 41 -4 46
5 2 3 9 -5 16 -12 11 -15 10 -20 -2z"/>
<path d="M9220 2600 c0 -22 5 -40 10 -40 6 0 10 11 10 25 0 14 5 25 10 25 6 0
10 -11 10 -25 0 -14 5 -25 10 -25 6 0 10 12 10 26 0 17 -6 28 -20 31 -11 3
-20 9 -20 14 0 5 -4 9 -10 9 -5 0 -10 -18 -10 -40z"/>
<path d="M8950 2590 c0 -16 5 -30 10 -30 6 0 10 14 10 30 0 17 -4 30 -10 30
-5 0 -10 -13 -10 -30z"/>
<path d="M9034 2605 c-9 -23 3 -45 25 -45 22 0 34 33 18 49 -16 16 -37 14 -43
-4z m36 -5 c0 -5 -4 -10 -10 -10 -5 0 -10 5 -10 10 0 6 5 10 10 10 6 0 10 -4
10 -10z"/>
<path d="M9154 2605 c-9 -23 3 -45 26 -45 11 0 20 4 20 9 0 5 -8 8 -17 7 -10
0 -18 6 -18 14 0 9 7 14 18 12 9 -2 17 2 17 8 0 16 -40 12 -46 -5z"/>
<path d="M9301 2602 c-12 -22 3 -42 30 -42 20 0 31 34 16 49 -16 16 -35 13
-46 -7z"/>
<path d="M9370 2590 c0 -16 5 -30 10 -30 6 0 10 9 10 20 0 11 5 20 10 20 6 0
10 5 10 10 0 6 -9 10 -20 10 -16 0 -20 -7 -20 -30z"/>
<path d="M9464 2605 c-14 -35 33 -65 52 -34 4 8 0 9 -15 4 -17 -5 -21 -2 -21
15 0 16 5 20 15 16 8 -3 15 -1 15 4 0 16 -40 11 -46 -5z"/>
<path d="M9534 2605 c-9 -23 3 -45 24 -45 29 0 48 26 32 45 -7 8 -21 15 -32
15 -10 0 -21 -7 -24 -15z m41 -15 c0 -7 -6 -15 -12 -17 -8 -3 -13 4 -13 17 0
13 5 20 13 18 6 -3 12 -11 12 -18z"/>
<path d="M9610 2590 c0 -16 5 -30 10 -30 6 0 10 11 10 25 0 14 5 25 10 25 6 0
10 -11 10 -25 0 -14 5 -25 10 -25 6 0 10 12 10 26 0 14 4 23 10 19 6 -3 10
-15 10 -26 0 -10 5 -19 11 -19 6 0 9 12 7 28 -3 25 -7 27 -50 30 -47 2 -48 2
-48 -28z"/>
<path d="M9420 2570 c0 -5 5 -10 10 -10 6 0 10 5 10 10 0 6 -4 10 -10 10 -5 0
-10 -4 -10 -10z"/>
</g>
</svg>
